<svg xmlns="http://www.w3.org/2000/svg" viewBox="0 0 21.7 22.8"><title>icon-az</title><g id="Layer_2" data-name="Layer 2"><g id="Layer_1-2" data-name="Layer 1"><path d="M5.5,22.6l-.6.2-.6-.2-4-4.1a.6.6,0,0,1-.2-.9.8.8,0,0,1,.7-.5H3.3V.8A1.4,1.4,0,0,1,3.5.2L4.1,0H5.7l.6.2a.7.7,0,0,1,.2.6V17.1H9a.9.9,0,0,1,.8.5.8.8,0,0,1-.3.9ZM15.4,9.7H13.2c-.2,0-.3-.1-.5-.3a.4.4,0,0,1,0-.5L15.6.4a.5.5,0,0,1,.5-.4h2.1a.5.5,0,0,1,.5.4L21.6,9c.1.2.1.4-.1.5s-.2.3-.4.3H19.2a.5.5,0,0,1-.5-.5l-.5-1.4H16l-.4,1.4A.5.5,0,0,1,15.4,9.7Zm5.5,5.4c0-.1.1-.2.1-.4v-1a.8.8,0,0,0-.2-.5l-.4-.2H14l-.4.2a.8.8,0,0,0-.2.5v1.4a.8.8,0,0,0,.2.5h3.3l-3.5,5a.8.8,0,0,0-.2.4v1.1c0,.2.1.3.2.5h7.5c.1-.2.2-.3.2-.5V20.7a.8.8,0,0,0-.2-.4l-.4-.2H17.4ZM17.5,5.4l-.4-1.2-.3,1.2Z" fill="#2d70e6"/></g></g></svg>