<svg xmlns="http://www.w3.org/2000/svg" viewBox="0 0 14.7 14.7"><title>icon-search</title><g id="Layer_2" data-name="Layer 2"><g id="Layer_1-2" data-name="Layer 1"><path d="M14.6,12.4c.2.1.2.3,0,.5l-1.7,1.7h-.5L9.1,11.3a5.3,5.3,0,0,1-3,.9,5.8,5.8,0,0,1-4.3-1.8A5.8,5.8,0,0,1,0,6.1,5.8,5.8,0,0,1,1.8,1.8,5.8,5.8,0,0,1,6.1,0a6,6,0,0,1,4.3,1.8,6.1,6.1,0,0,1,1.7,4.3,5.2,5.2,0,0,1-.8,3ZM8.7,3.5A3.3,3.3,0,0,0,6.1,2.4,3.3,3.3,0,0,0,3.5,3.5,3.3,3.3,0,0,0,2.4,6.1,3.3,3.3,0,0,0,3.5,8.7a3.6,3.6,0,0,0,5.2,0,3.6,3.6,0,0,0,0-5.2Z" fill="#e77125"/></g></g></svg>