<svg xmlns="http://www.w3.org/2000/svg" viewBox="0 0 22.8 26.1"><title>icon-catalog</title><g id="Layer_2" data-name="Layer 2"><g id="Layer_1-2" data-name="Layer 1"><path d="M22.8,18.3a1.1,1.1,0,0,1-.4,1,7.8,7.8,0,0,0-.2,1.9,7.8,7.8,0,0,0,.2,1.9,1.3,1.3,0,0,1,.4,1v.8a1.1,1.1,0,0,1-.3.8,1.2,1.2,0,0,1-.9.4H4.9a5,5,0,0,1-3.5-1.4A5,5,0,0,1,0,21.2V4.9A5,5,0,0,1,1.4,1.4,5,5,0,0,1,4.9,0H21.6a1.2,1.2,0,0,1,.9.4,1.1,1.1,0,0,1,.3.8Zm-3.4,4.5V19.6H4.9a1.6,1.6,0,0,0-1.2.5,1.7,1.7,0,0,0,0,2.2,1.6,1.6,0,0,0,1.2.5ZM6.5,6.8v1c0,.1.1.2.1.3H17.8a.4.4,0,0,0,.1-.3V6.6H6.6A.3.3,0,0,1,6.5,6.8Zm0,3.3v1c0,.1.1.1.1.2H17.8V9.9H6.6Z" fill="#2d70e6"/></g></g></svg>